{
.appVersion = "939";
DisplayStrings = (
$
);
copyright = "Copyright © 2019 by Nikita Prokopov. All rights reserved.";
date = "2019-03-20 18:04:42 +0000";
designer = "Nikita Prokopov";
designerURL = "http://tonsky.me";
familyName = "Heroes Sans";
fontMaster = (
{
ascender = 500;
capHeight = 500;
customParameters = (
{
name = typoAscender;
value = 500;
},
{
name = typoDescender;
value = 0;
},
{
name = typoLineGap;
value = 0;
},
{
name = winAscent;
value = 500;
},
{
name = winDescent;
value = 0;
},
{
name = hheaAscender;
value = 500;
},
{
name = hheaDescender;
value = 0;
},
{
name = underlinePosition;
value = 300;
},
{
name = underlineThickness;
value = 100;
}
);
descender = -100;
id = "18FF748A-4ED4-42AC-B8D8-EAC2010FE1E3";
xHeight = 400;
}
);
glyphs = (
{
glyphname = A;
lastChange = "2019-03-19 14:26:21 +0000";
layers = (
{
layerId = "18FF748A-4ED4-42AC-B8D8-EAC2010FE1E3";
paths = (
{
closed = 1;
nodes = (
"0 500 LINE",
"0 0 LINE",
"100 0 LINE",
"100 200 LINE",
"200 200 LINE",
"200 0 LINE",
"300 0 LINE",
"300 500 LINE"
);
},
{
closed = 1;
nodes = (
"200 400 LINE",
"200 300 LINE",
"100 300 LINE",
"100 400 LINE"
);
}
);
width = 400;
}
);
unicode = 0041;
},
{
glyphname = B;
lastChange = "2019-03-19 16:17:40 +0000";
layers = (
{
layerId = "18FF748A-4ED4-42AC-B8D8-EAC2010FE1E3";
paths = (
{
closed = 1;
nodes = (
"300 500 LINE",
"0 500 LINE",
"0 0 LINE",
"300 0 LINE",
"300 204 LINE",
"200 200 LINE",
"200 300 LINE",
"300 300 LINE"
);
},
{
closed = 1;
nodes = (
"100 400 LINE",
"200 400 LINE",
"200 300 LINE",
"100 300 LINE"
);
},
{
closed = 1;
nodes = (
"100 200 LINE",
"200 200 LINE",
"200 100 LINE",
"100 100 LINE"
);
}
);
width = 400;
}
);
unicode = 0042;
},
{
glyphname = C;
lastChange = "2019-03-19 14:30:02 +0000";
layers = (
{
layerId = "18FF748A-4ED4-42AC-B8D8-EAC2010FE1E3";
paths = (
{
closed = 1;
nodes = (
"300 500 LINE",
"0 500 LINE",
"0 0 LINE",
"300 0 LINE",
"300 100 LINE",
"100 100 LINE",
"100 400 LINE",
"300 400 LINE"
);
}
);
width = 400;
}
);
unicode = 0043;
},
{
glyphname = D;
lastChange = "2019-03-19 16:18:51 +0000";
layers = (
{
layerId = "18FF748A-4ED4-42AC-B8D8-EAC2010FE1E3";
paths = (
{
closed = 1;
nodes = (
"0 500 LINE",
"0 0 LINE",
"200 0 LINE",
"200 100 LINE",
"300 100 LINE",
"300 400 LINE",
"200 400 LINE",
"200 500 LINE"
);
},
{
closed = 1;
nodes = (
"200 400 LINE",
"200 100 LINE",
"100 100 LINE",
"100 400 LINE"
);
}
);
width = 400;
}
);
unicode = 0044;
},
{
glyphname = E;
lastChange = "2019-03-19 16:19:00 +0000";
layers = (
{
layerId = "18FF748A-4ED4-42AC-B8D8-EAC2010FE1E3";
paths = (
{
closed = 1;
nodes = (
"0 0 LINE",
"300 0 LINE",
"300 100 LINE",
"101 100 LINE",
"100 200 LINE",
"200 200 LINE",
"200 300 LINE",
"100 300 LINE",
"100 400 LINE",
"300 400 LINE",
"300 500 LINE",
"0 500 LINE"
);
}
);
width = 400;
}
);
unicode = 0045;
},
{
glyphname = F;
lastChange = "2019-03-19 16:19:05 +0000";
layers = (
{
layerId = "18FF748A-4ED4-42AC-B8D8-EAC2010FE1E3";
paths = (
{
closed = 1;
nodes = (
"0 0 LINE",
"101 0 LINE",
"100 200 LINE",
"300 200 LINE",
"300 300 LINE",
"100 300 LINE",
"100 400 LINE",
"300 400 LINE",
"300 500 LINE",
"0 500 LINE"
);
}
);
width = 400;
}
);
unicode = 0046;
},
{
glyphname = G;
lastChange = "2019-03-19 14:31:05 +0000";
layers = (
{
layerId = "18FF748A-4ED4-42AC-B8D8-EAC2010FE1E3";
paths = (
{
closed = 1;
nodes = (
"200 300 LINE",
"200 100 LINE",
"100 100 LINE",
"100 500 LINE",
"300 500 LINE",
"300 400 LINE",
"0 400 LINE",
"0 0 LINE",
"300 0 LINE",
"300 300 LINE"
);
}
);
width = 400;
}
);
unicode = 0047;
},
{
glyphname = H;
lastChange = "2019-03-19 16:19:15 +0000";
layers = (
{
layerId = "18FF748A-4ED4-42AC-B8D8-EAC2010FE1E3";
paths = (
{
closed = 1;
nodes = (
"0 0 LINE",
"100 0 LINE",
"100 200 LINE",
"200 200 LINE",
"200 0 LINE",
"300 0 LINE",
"300 500 LINE",
"200 500 LINE",
"200 300 LINE",
"100 300 LINE",
"100 500 LINE",
"0 500 LINE"
);
}
);
width = 400;
}
);
unicode = 0048;
},
{
glyphname = I;
lastChange = "2019-02-28 15:46:48 +0000";
layers = (
{
layerId = "18FF748A-4ED4-42AC-B8D8-EAC2010FE1E3";
paths = (
{
closed = 1;
nodes = (
"0 400 LINE",
"100 400 LINE",
"100 100 LINE",
"0 100 LINE",
"0 0 LINE",
"300 0 LINE",
"300 100 LINE",
"200 100 LINE",
"200 400 LINE",
"300 400 LINE",
"300 500 LINE",
"0 500 LINE"
);
}
);
width = 400;
}
);
unicode = 0049;
},
{
glyphname = J;
lastChange = "2019-02-28 15:46:50 +0000";
layers = (
{
layerId = "18FF748A-4ED4-42AC-B8D8-EAC2010FE1E3";
paths = (
{
closed = 1;
nodes = (
"0 400 LINE",
"200 400 LINE",
"200 0 LINE",
"100 0 LINE",
"100 200 LINE",
"0 200 LINE",
"0 100 LINE",
"300 100 LINE",
"300 400 LINE",
"300 500 LINE",
"0 500 LINE"
);
}
);
width = 400;
}
);
unicode = 004A;
},
{
glyphname = K;
lastChange = "2019-03-19 16:19:26 +0000";
layers = (
{
layerId = "18FF748A-4ED4-42AC-B8D8-EAC2010FE1E3";
paths = (
{
closed = 1;
nodes = (
"0 0 LINE",
"100 0 LINE",
"100 200 LINE",
"200 200 LINE",
"200 0 LINE",
"300 0 LINE",
"300 200 LINE",
"200 200 LINE",
"200 300 LINE",
"300 300 LINE",
"300 500 LINE",
"200 500 LINE",
"200 300 LINE",
"100 300 LINE",
"100 500 LINE",
"0 500 LINE"
);
}
);
width = 400;
}
);
unicode = 004B;
},
{
glyphname = L;
lastChange = "2019-02-28 15:46:56 +0000";
layers = (
{
layerId = "18FF748A-4ED4-42AC-B8D8-EAC2010FE1E3";
paths = (
{
closed = 1;
nodes = (
"300 0 LINE",
"300 100 LINE",
"100 100 LINE",
"100 500 LINE",
"0 500 LINE",
"0 0 LINE"
);
}
);
width = 400;
}
);
unicode = 004C;
},
{
glyphname = M;
lastChange = "2019-03-19 14:32:22 +0000";
layers = (
{
layerId = "18FF748A-4ED4-42AC-B8D8-EAC2010FE1E3";
paths = (
{
closed = 1;
nodes = (
"300 500 LINE",
"0 500 LINE",
"0 0 LINE",
"100 0 LINE",
"100 300 LINE",
"200 300 LINE",
"200 0 LINE",
"300 0 LINE"
);
}
);
width = 400;
}
);
unicode = 004D;
},
{
glyphname = N;
lastChange = "2019-03-19 14:33:33 +0000";
layers = (
{
layerId = "18FF748A-4ED4-42AC-B8D8-EAC2010FE1E3";
paths = (
{
closed = 1;
nodes = (
"300 400 LINE",
"100 400 LINE",
"100 0 LINE",
"0 0 LINE",
"0 500 LINE",
"200 500 LINE",
"200 0 LINE",
"300 0 LINE"
);
}
);
width = 400;
}
);
unicode = 004E;
},
{
glyphname = O;
lastChange = "2019-03-19 16:19:57 +0000";
layers = (
{
layerId = "18FF748A-4ED4-42AC-B8D8-EAC2010FE1E3";
paths = (
{
closed = 1;
nodes = (
"300 100 LINE",
"300 500 LINE",
"100 500 LINE",
"100 400 LINE",
"0 400 LINE",
"0 0 LINE",
"200 0 LINE",
"200 100 LINE",
"100 100 LINE",
"100 400 LINE",
"200 400 LINE",
"200 100 LINE"
);
}
);
width = 400;
}
);
unicode = 004F;
},
{
glyphname = P;
lastChange = "2019-03-19 14:47:52 +0000";
layers = (
{
layerId = "18FF748A-4ED4-42AC-B8D8-EAC2010FE1E3";
paths = (
{
closed = 1;
nodes = (
"100 0 LINE",
"100 200 LINE",
"300 200 LINE",
"300 500 LINE",
"0 500 LINE",
"0 0 LINE"
);
},
{
closed = 1;
nodes = (
"200 400 LINE",
"200 300 LINE",
"100 300 LINE",
"100 400 LINE"
);
}
);
width = 400;
}
);
unicode = 0050;
},
{
glyphname = Q;
lastChange = "2019-03-19 14:48:20 +0000";
layers = (
{
layerId = "18FF748A-4ED4-42AC-B8D8-EAC2010FE1E3";
paths = (
{
closed = 1;
nodes = (
"0 100 LINE",
"100 100 LINE",
"100 0 LINE",
"200 0 LINE",
"200 100 LINE",
"300 100 LINE",
"300 500 LINE",
"0 500 LINE"
);
},
{
closed = 1;
nodes = (
"200 400 LINE",
"200 200 LINE",
"100 200 LINE",
"100 400 LINE"
);
}
);
width = 400;
}
);
unicode = 0051;
},
{
glyphname = R;
lastChange = "2019-03-19 16:20:22 +0000";
layers = (
{
layerId = "18FF748A-4ED4-42AC-B8D8-EAC2010FE1E3";
paths = (
{
closed = 1;
nodes = (
"100 0 LINE",
"100 200 LINE",
"300 200 LINE",
"300 0 LINE",
"200 0 LINE",
"200 300 LINE",
"300 300 LINE",
"300 500 LINE",
"0 500 LINE",
"0 0 LINE"
);
},
{
closed = 1;
nodes = (
"200 400 LINE",
"200 300 LINE",
"100 300 LINE",
"100 400 LINE"
);
}
);
width = 400;
}
);
unicode = 0052;
},
{
glyphname = S;
lastChange = "2019-03-19 14:50:31 +0000";
layers = (
{
layerId = "18FF748A-4ED4-42AC-B8D8-EAC2010FE1E3";
paths = (
{
closed = 1;
nodes = (
"0 500 LINE",
"0 200 LINE",
"200 200 LINE",
"200 100 LINE",
"0 100 LINE",
"0 0 LINE",
"300 0 LINE",
"300 300 LINE",
"100 300 LINE",
"100 400 LINE",
"300 400 LINE",
"300 500 LINE"
);
}
);
width = 400;
}
);
unicode = 0053;
},
{
glyphname = T;
lastChange = "2019-02-28 15:47:20 +0000";
layers = (
{
layerId = "18FF748A-4ED4-42AC-B8D8-EAC2010FE1E3";
paths = (
{
closed = 1;
nodes = (
"0 400 LINE",
"100 400 LINE",
"100 0 LINE",
"200 0 LINE",
"200 400 LINE",
"300 400 LINE",
"300 500 LINE",
"0 500 LINE"
);
}
);
width = 400;
}
);
unicode = 0054;
},
{
glyphname = U;
lastChange = "2019-03-19 16:20:33 +0000";
layers = (
{
layerId = "18FF748A-4ED4-42AC-B8D8-EAC2010FE1E3";
paths = (
{
closed = 1;
nodes = (
"0 100 LINE",
"200 100 LINE",
"200 500 LINE",
"300 500 LINE",
"300 0 LINE",
"100 0 LINE",
"100 500 LINE",
"0 500 LINE"
);
}
);
width = 400;
}
);
unicode = 0055;
},
{
glyphname = V;
lastChange = "2019-03-19 14:51:16 +0000";
layers = (
{
layerId = "18FF748A-4ED4-42AC-B8D8-EAC2010FE1E3";
paths = (
{
closed = 1;
nodes = (
"0 100 LINE",
"100 100 LINE",
"100 0 LINE",
"200 0 LINE",
"200 100 LINE",
"300 100 LINE",
"300 500 LINE",
"200 500 LINE",
"200 200 LINE",
"100 200 LINE",
"100 500 LINE",
"0 500 LINE"
);
}
);
width = 400;
}
);
unicode = 0056;
},
{
glyphname = W;
lastChange = "2019-03-19 14:51:45 +0000";
layers = (
{
layerId = "18FF748A-4ED4-42AC-B8D8-EAC2010FE1E3";
paths = (
{
closed = 1;
nodes = (
"200 500 LINE",
"200 200 LINE",
"100 200 LINE",
"100 500 LINE",
"0 500 LINE",
"0 0 LINE",
"300 0 LINE",
"300 500 LINE"
);
}
);
width = 400;
}
);
unicode = 0057;
},
{
glyphname = X;
lastChange = "2019-03-19 16:20:42 +0000";
layers = (
{
layerId = "18FF748A-4ED4-42AC-B8D8-EAC2010FE1E3";
paths = (
{
closed = 1;
nodes = (
"0 300 LINE",
"300 300 LINE",
"300 500 LINE",
"200 500 LINE",
"200 0 LINE",
"300 0 LINE",
"300 200 LINE",
"0 200 LINE",
"1 0 LINE",
"100 0 LINE",
"100 500 LINE",
"1 500 LINE"
);
}
);
width = 400;
}
);
unicode = 0058;
},
{
glyphname = Y;
lastChange = "2019-03-19 14:52:39 +0000";
layers = (
{
layerId = "18FF748A-4ED4-42AC-B8D8-EAC2010FE1E3";
paths = (
{
closed = 1;
nodes = (
"0 300 LINE",
"300 300 LINE",
"300 500 LINE",
"200 500 LINE",
"200 0 LINE",
"100 0 LINE",
"100 500 LINE",
"0 500 LINE"
);
}
);
width = 400;
}
);
unicode = 0059;
},
{
glyphname = Z;
lastChange = "2019-03-19 16:20:53 +0000";
layers = (
{
layerId = "18FF748A-4ED4-42AC-B8D8-EAC2010FE1E3";
paths = (
{
closed = 1;
nodes = (
"0 400 LINE",
"200 400 LINE",
"200 200 LINE",
"0 200 LINE",
"0 0 LINE",
"300 0 LINE",
"300 100 LINE",
"100 100 LINE",
"100 300 LINE",
"300 300 LINE",
"300 500 LINE",
"0 500 LINE"
);
}
);
width = 400;
}
);
unicode = 005A;
},
{
glyphname = a;
lastChange = "2019-03-19 16:17:20 +0000";
layers = (
{
layerId = "18FF748A-4ED4-42AC-B8D8-EAC2010FE1E3";
paths = (
{
closed = 1;
nodes = (
"100 400 LINE",
"100 300 LINE",
"0 300 LINE",
"0 100 LINE",
"100 100 LINE",
"100 0 LINE",
"300 0 LINE",
"300 400 LINE"
);
},
{
closed = 1;
nodes = (
"200 300 LINE",
"200 100 LINE",
"100 100 LINE",
"100 300 LINE"
);
}
);
width = 400;
}
);
unicode = 0061;
},
{
glyphname = b;
lastChange = "2019-03-19 14:55:01 +0000";
layers = (
{
layerId = "18FF748A-4ED4-42AC-B8D8-EAC2010FE1E3";
paths = (
{
closed = 1;
nodes = (
"0 0 LINE",
"300 0 LINE",
"300 300 LINE",
"200 300 LINE",
"200 400 LINE",
"100 400 LINE",
"100 500 LINE",
"0 500 LINE"
);
},
{
closed = 1;
nodes = (
"200 300 LINE",
"200 100 LINE",
"100 100 LINE",
"100 300 LINE"
);
}
);
width = 400;
}
);
unicode = 0062;
},
{
glyphname = c;
lastChange = "2019-03-19 14:55:16 +0000";
layers = (
{
layerId = "18FF748A-4ED4-42AC-B8D8-EAC2010FE1E3";
paths = (
{
closed = 1;
nodes = (
"300 400 LINE",
"0 400 LINE",
"0 0 LINE",
"300 0 LINE",
"300 100 LINE",
"100 100 LINE",
"100 300 LINE",
"300 300 LINE"
);
}
);
width = 400;
}
);
unicode = 0063;
},
{
glyphname = e;
lastChange = "2019-03-19 14:57:02 +0000";
layers = (
{
layerId = "18FF748A-4ED4-42AC-B8D8-EAC2010FE1E3";
paths = (
{
closed = 1;
nodes = (
"300 400 LINE",
"0 400 LINE",
"0 0 LINE",
"300 0 LINE",
"300 100 LINE",
"100 100 LINE",
"100 200 LINE",
"300 200 LINE"
);
}
);
width = 400;
}
);
unicode = 0065;
},
{
glyphname = f;
lastChange = "2019-03-19 14:57:35 +0000";
layers = (
{
layerId = "18FF748A-4ED4-42AC-B8D8-EAC2010FE1E3";
paths = (
{
closed = 1;
nodes = (
"100 500 LINE",
"100 300 LINE",
"0 300 LINE",
"0 200 LINE",
"100 200 LINE",
"100 0 LINE",
"0 0 LINE",
"0 -100 LINE",
"200 -100 LINE",
"200 200 LINE",
"300 200 LINE",
"300 300 LINE",
"200 300 LINE",
"200 400 LINE",
"300 400 LINE",
"300 500 LINE"
);
}
);
width = 400;
}
);
unicode = 0066;
},
{
glyphname = g;
lastChange = "2019-03-19 16:21:19 +0000";
layers = (
{
layerId = "18FF748A-4ED4-42AC-B8D8-EAC2010FE1E3";
paths = (
{
closed = 1;
nodes = (
"0 100 LINE",
"200 100 LINE",
"200 0 LINE",
"0 0 LINE",
"0 -100 LINE",
"300 -100 LINE",
"300 400 LINE",
"0 400 LINE"
);
},
{
closed = 1;
nodes = (
"100 300 LINE",
"200 300 LINE",
"200 200 LINE",
"100 200 LINE"
);
}
);
width = 400;
}
);
unicode = 0067;
},
{
glyphname = h;
lastChange = "2019-03-19 14:58:28 +0000";
layers = (
{
layerId = "18FF748A-4ED4-42AC-B8D8-EAC2010FE1E3";
paths = (
{
closed = 1;
nodes = (
"0 0 LINE",
"100 0 LINE",
"100 300 LINE",
"300 300 LINE",
"300 0 LINE",
"200 0 LINE",
"200 400 LINE",
"100 400 LINE",
"100 500 LINE",
"0 500 LINE"
);
}
);
width = 400;
}
);
unicode = 0068;
},
{
glyphname = i;
lastChange = "2019-03-19 15:02:52 +0000";
layers = (
{
layerId = "18FF748A-4ED4-42AC-B8D8-EAC2010FE1E3";
paths = (
{
closed = 1;
nodes = (
"0 300 LINE",
"0 0 LINE",
"100 0 LINE",
"100 300 LINE"
);
},
{
closed = 1;
nodes = (
"0 400 LINE",
"100 400 LINE",
"100 500 LINE",
"0 500 LINE"
);
}
);
width = 200;
}
);
unicode = 0069;
},
{
glyphname = j;
lastChange = "2019-03-19 16:21:30 +0000";
layers = (
{
layerId = "18FF748A-4ED4-42AC-B8D8-EAC2010FE1E3";
paths = (
{
closed = 1;
nodes = (
"200 300 LINE",
"100 300 LINE",
"100 0 LINE",
"0 0 LINE",
"0 -100 LINE",
"200 -100 LINE"
);
},
{
closed = 1;
nodes = (
"100 400 LINE",
"200 400 LINE",
"200 500 LINE",
"100 500 LINE"
);
}
);
width = 300;
}
);
unicode = 006A;
},
{
glyphname = k;
lastChange = "2019-03-19 16:21:37 +0000";
layers = (
{
layerId = "18FF748A-4ED4-42AC-B8D8-EAC2010FE1E3";
paths = (
{
closed = 1;
nodes = (
"0 0 LINE",
"100 0 LINE",
"100 200 LINE",
"200 200 LINE",
"200 0 LINE",
"300 0 LINE",
"300 200 LINE",
"200 200 LINE",
"200 300 LINE",
"300 300 LINE",
"300 400 LINE",
"200 400 LINE",
"200 300 LINE",
"100 300 LINE",
"100 500 LINE",
"0 500 LINE"
);
}
);
width = 400;
}
);
unicode = 006B;
},
{
glyphname = l;
lastChange = "2019-03-19 15:08:48 +0000";
layers = (
{
layerId = "18FF748A-4ED4-42AC-B8D8-EAC2010FE1E3";
paths = (
{
closed = 1;
nodes = (
"200 0 LINE",
"200 100 LINE",
"100 100 LINE",
"100 500 LINE",
"0 500 LINE",
"0 0 LINE"
);
}
);
width = 300;
}
);
unicode = 006C;
},
{
glyphname = m;
lastChange = "2019-03-19 15:01:27 +0000";
layers = (
{
layerId = "18FF748A-4ED4-42AC-B8D8-EAC2010FE1E3";
paths = (
{
closed = 1;
nodes = (
"300 400 LINE",
"0 400 LINE",
"0 0 LINE",
"100 0 LINE",
"100 200 LINE",
"200 200 LINE",
"200 0 LINE",
"300 0 LINE"
);
}
);
width = 400;
}
);
unicode = 006D;
},
{
glyphname = n;
lastChange = "2019-03-19 15:01:32 +0000";
layers = (
{
layerId = "18FF748A-4ED4-42AC-B8D8-EAC2010FE1E3";
paths = (
{
closed = 1;
nodes = (
"300 300 LINE",
"100 300 LINE",
"100 0 LINE",
"0 0 LINE",
"0 400 LINE",
"200 400 LINE",
"200 0 LINE",
"300 0 LINE"
);
}
);
width = 400;
}
);
unicode = 006E;
},
{
glyphname = o;
lastChange = "2019-03-19 15:01:41 +0000";
layers = (
{
layerId = "18FF748A-4ED4-42AC-B8D8-EAC2010FE1E3";
paths = (
{
closed = 1;
nodes = (
"200 300 LINE",
"100 300 LINE",
"100 100 LINE",
"200 100 LINE",
"200 0 LINE",
"0 0 LINE",
"0 300 LINE",
"100 300 LINE",
"100 400 LINE",
"300 400 LINE",
"300 100 LINE",
"200 100 LINE"
);
}
);
width = 400;
}
);
unicode = 006F;
},
{
glyphname = r;
lastChange = "2019-03-19 15:09:15 +0000";
layers = (
{
layerId = "18FF748A-4ED4-42AC-B8D8-EAC2010FE1E3";
paths = (
{
closed = 1;
nodes = (
"100 300 LINE",
"200 300 LINE",
"200 400 LINE",
"0 400 LINE",
"0 0 LINE",
"100 0 LINE"
);
}
);
width = 300;
}
);
unicode = 0072;
},
{
glyphname = s;
lastChange = "2019-03-19 15:03:31 +0000";
layers = (
{
layerId = "18FF748A-4ED4-42AC-B8D8-EAC2010FE1E3";
paths = (
{
closed = 1;
nodes = (
"300 0 LINE",
"300 200 LINE",
"0 200 LINE",
"0 400 LINE",
"300 400 LINE",
"300 300 LINE",
"100 300 LINE",
"100 100 LINE",
"0 100 LINE",
"0 0 LINE"
);
}
);
width = 400;
}
);
unicode = 0073;
},
{
glyphname = t;
lastChange = "2019-03-19 15:03:57 +0000";
layers = (
{
layerId = "18FF748A-4ED4-42AC-B8D8-EAC2010FE1E3";
paths = (
{
closed = 1;
nodes = (
"100 400 LINE",
"0 400 LINE",
"0 300 LINE",
"100 300 LINE",
"100 0 LINE",
"300 0 LINE",
"300 100 LINE",
"200 100 LINE",
"200 300 LINE",
"300 300 LINE",
"300 400 LINE",
"200 400 LINE",
"200 500 LINE",
"100 500 LINE"
);
}
);
width = 400;
}
);
unicode = 0074;
},
{
glyphname = u;
lastChange = "2019-03-19 16:22:05 +0000";
layers = (
{
layerId = "18FF748A-4ED4-42AC-B8D8-EAC2010FE1E3";
paths = (
{
closed = 1;
nodes = (
"0 100 LINE",
"200 100 LINE",
"200 400 LINE",
"300 400 LINE",
"300 0 LINE",
"100 0 LINE",
"100 400 LINE",
"0 400 LINE"
);
}
);
width = 400;
}
);
unicode = 0075;
},
{
glyphname = v;
lastChange = "2019-03-19 15:04:19 +0000";
layers = (
{
layerId = "18FF748A-4ED4-42AC-B8D8-EAC2010FE1E3";
paths = (
{
closed = 1;
nodes = (
"0 100 LINE",
"100 100 LINE",
"100 0 LINE",
"200 0 LINE",
"200 100 LINE",
"300 100 LINE",
"300 400 LINE",
"200 400 LINE",
"200 200 LINE",
"100 200 LINE",
"100 400 LINE",
"0 400 LINE"
);
}
);
width = 400;
}
);
unicode = 0076;
},
{
glyphname = w;
lastChange = "2019-03-19 15:04:24 +0000";
layers = (
{
layerId = "18FF748A-4ED4-42AC-B8D8-EAC2010FE1E3";
paths = (
{
closed = 1;
nodes = (
"200 400 LINE",
"200 200 LINE",
"100 200 LINE",
"100 400 LINE",
"0 400 LINE",
"0 0 LINE",
"300 0 LINE",
"300 400 LINE"
);
}
);
width = 400;
}
);
unicode = 0077;
},
{
glyphname = x;
lastChange = "2019-03-19 16:22:14 +0000";
layers = (
{
layerId = "18FF748A-4ED4-42AC-B8D8-EAC2010FE1E3";
paths = (
{
closed = 1;
nodes = (
"100 0 LINE",
"100 100 LINE",
"300 100 LINE",
"300 0 LINE",
"200 0 LINE",
"200 200 LINE",
"300 200 LINE",
"300 400 LINE",
"200 400 LINE",
"200 300 LINE",
"0 300 LINE",
"0 400 LINE",
"100 400 LINE",
"100 200 LINE",
"0 200 LINE",
"0 0 LINE"
);
}
);
width = 400;
}
);
unicode = 0078;
},
{
glyphname = y;
lastChange = "2019-03-19 15:05:35 +0000";
layers = (
{
layerId = "18FF748A-4ED4-42AC-B8D8-EAC2010FE1E3";
paths = (
{
closed = 1;
nodes = (
"0 100 LINE",
"200 100 LINE",
"200 -100 LINE",
"0 -100 LINE",
"0 0 LINE",
"300 0 LINE",
"300 400 LINE",
"200 400 LINE",
"200 200 LINE",
"100 200 LINE",
"100 400 LINE",
"0 400 LINE"
);
}
);
width = 400;
}
);
unicode = 0079;
},
{
glyphname = z;
lastChange = "2019-03-19 16:22:23 +0000";
layers = (
{
layerId = "18FF748A-4ED4-42AC-B8D8-EAC2010FE1E3";
paths = (
{
closed = 1;
nodes = (
"0 300 LINE",
"100 300 LINE",
"100 100 LINE",
"300 100 LINE",
"300 0 LINE",
"0 0 LINE",
"0 200 LINE",
"200 200 LINE",
"200 300 LINE",
"300 306 LINE",
"300 400 LINE",
"0 400 LINE"
);
}
);
width = 400;
}
);
unicode = 007A;
},
{
glyphname = zero;
lastChange = "2019-03-19 15:10:24 +0000";
layers = (
{
layerId = "18FF748A-4ED4-42AC-B8D8-EAC2010FE1E3";
paths = (
{
closed = 1;
nodes = (
"0 0 LINE",
"300 0 LINE",
"300 500 LINE",
"0 500 LINE"
);
},
{
closed = 1;
nodes = (
"100 400 LINE",
"200 400 LINE",
"200 100 LINE",
"100 100 LINE"
);
}
);
width = 400;
}
);
unicode = 0030;
},
{
glyphname = one;
lastChange = "2019-03-20 18:05:47 +0000";
layers = (
{
layerId = "18FF748A-4ED4-42AC-B8D8-EAC2010FE1E3";
paths = (
{
closed = 1;
nodes = (
"100 400 LINE",
"0 400 LINE",
"0 300 LINE",
"100 300 LINE",
"100 0 LINE",
"200 0 LINE",
"200 500 LINE",
"100 500 LINE"
);
}
);
width = 300;
}
);
unicode = 0031;
},
{
glyphname = four;
lastChange = "2019-02-28 15:48:06 +0000";
layers = (
{
layerId = "18FF748A-4ED4-42AC-B8D8-EAC2010FE1E3";
paths = (
{
closed = 1;
nodes = (
"0 500 LINE",
"0 200 LINE",
"200 200 LINE",
"200 0 LINE",
"300 0 LINE",
"300 500 LINE",
"200 500 LINE",
"200 300 LINE",
"100 300 LINE",
"100 500 LINE"
);
}
);
width = 400;
}
);
unicode = 0034;
},
{
glyphname = six;
lastChange = "2019-03-20 18:06:19 +0000";
layers = (
{
layerId = "18FF748A-4ED4-42AC-B8D8-EAC2010FE1E3";
paths = (
{
closed = 1;
nodes = (
"0 0 LINE",
"300 0 LINE",
"300 300 LINE",
"100 300 LINE",
"100 400 LINE",
"300 400 LINE",
"300 500 LINE",
"0 500 LINE"
);
},
{
closed = 1;
nodes = (
"200 200 LINE",
"200 100 LINE",
"100 100 LINE",
"100 200 LINE"
);
}
);
width = 400;
}
);
unicode = 0036;
},
{
glyphname = seven;
lastChange = "2019-02-28 15:48:15 +0000";
layers = (
{
layerId = "18FF748A-4ED4-42AC-B8D8-EAC2010FE1E3";
paths = (
{
closed = 1;
nodes = (
"0 500 LINE",
"0 400 LINE",
"200 400 LINE",
"200 0 LINE",
"100 0 LINE",
"100 300 LINE",
"300 300 LINE",
"300 500 LINE"
);
}
);
width = 400;
}
);
unicode = 0037;
},
{
glyphname = eight;
lastChange = "2019-03-19 15:12:15 +0000";
layers = (
{
layerId = "18FF748A-4ED4-42AC-B8D8-EAC2010FE1E3";
paths = (
{
closed = 1;
nodes = (
"0 0 LINE",
"300 0 LINE",
"300 500 LINE",
"0 500 LINE"
);
},
{
closed = 1;
nodes = (
"100 400 LINE",
"200 400 LINE",
"200 300 LINE",
"100 300 LINE"
);
},
{
closed = 1;
nodes = (
"100 200 LINE",
"200 200 LINE",
"200 100 LINE",
"100 100 LINE"
);
}
);
width = 400;
}
);
unicode = 0038;
},
{
glyphname = periodcentered;
lastChange = "2019-03-20 18:10:24 +0000";
layers = (
{
layerId = "18FF748A-4ED4-42AC-B8D8-EAC2010FE1E3";
paths = (
{
closed = 1;
nodes = (
"100 200 LINE",
"200 200 LINE",
"200 300 LINE",
"100 300 LINE"
);
}
);
width = 400;
}
);
unicode = 00B7;
},
{
glyphname = colon;
lastChange = "2019-02-28 15:48:24 +0000";
layers = (
{
layerId = "18FF748A-4ED4-42AC-B8D8-EAC2010FE1E3";
paths = (
{
closed = 1;
nodes = (
"0 100 LINE",
"100 100 LINE",
"100 200 LINE",
"0 200 LINE"
);
},
{
closed = 1;
nodes = (
"0 300 LINE",
"100 300 LINE",
"100 400 LINE",
"0 400 LINE"
);
}
);
width = 200;
}
);
unicode = 003A;
},
{
glyphname = comma;
lastChange = "2019-02-28 15:48:27 +0000";
layers = (
{
layerId = "18FF748A-4ED4-42AC-B8D8-EAC2010FE1E3";
paths = (
{
closed = 1;
nodes = (
"100 0 LINE",
"200 0 LINE",
"200 100 LINE",
"100 100 LINE"
);
},
{
closed = 1;
nodes = (
"0 -100 LINE",
"100 -100 LINE",
"100 0 LINE",
"0 0 LINE"
);
}
);
width = 300;
}
);
unicode = 002C;
},
{
glyphname = exclam;
lastChange = "2019-02-28 15:48:30 +0000";
layers = (
{
layerId = "18FF748A-4ED4-42AC-B8D8-EAC2010FE1E3";
paths = (
{
closed = 1;
nodes = (
"0 0 LINE",
"100 0 LINE",
"100 100 LINE",
"0 100 LINE"
);
},
{
closed = 1;
nodes = (
"0 200 LINE",
"100 200 LINE",
"100 500 LINE",
"0 500 LINE"
);
}
);
width = 200;
}
);
unicode = 0021;
},
{
glyphname = period;
lastChange = "2019-02-28 15:48:33 +0000";
layers = (
{
layerId = "18FF748A-4ED4-42AC-B8D8-EAC2010FE1E3";
paths = (
{
closed = 1;
nodes = (
"0 0 LINE",
"100 0 LINE",
"100 100 LINE",
"0 100 LINE"
);
}
);
width = 200;
}
);
unicode = 002E;
},
{
glyphname = question;
lastChange = "2019-03-19 16:23:02 +0000";
layers = (
{
layerId = "18FF748A-4ED4-42AC-B8D8-EAC2010FE1E3";
paths = (
{
closed = 1;
nodes = (
"100 0 LINE",
"200 0 LINE",
"200 100 LINE",
"100 100 LINE"
);
},
{
closed = 1;
nodes = (
"0 400 LINE",
"200 400 LINE",
"200 300 LINE",
"100 300 LINE",
"100 200 LINE",
"300 200 LINE",
"300 500 LINE",
"0 500 LINE"
);
}
);
width = 400;
}
);
unicode = 003F;
},
{
glyphname = quotedbl;
lastChange = "2019-02-28 15:48:39 +0000";
layers = (
{
layerId = "18FF748A-4ED4-42AC-B8D8-EAC2010FE1E3";
paths = (
{
closed = 1;
nodes = (
"0 300 LINE",
"100 300 LINE",
"100 500 LINE",
"0 500 LINE"
);
},
{
closed = 1;
nodes = (
"200 300 LINE",
"300 300 LINE",
"300 500 LINE",
"200 500 LINE"
);
}
);
width = 400;
}
);
unicode = 0022;
},
{
glyphname = quotesingle;
lastChange = "2019-02-28 15:48:42 +0000";
layers = (
{
layerId = "18FF748A-4ED4-42AC-B8D8-EAC2010FE1E3";
paths = (
{
closed = 1;
nodes = (
"0 300 LINE",
"100 300 LINE",
"100 500 LINE",
"0 500 LINE"
);
}
);
width = 200;
}
);
unicode = 0027;
},
{
glyphname = slash;
lastChange = "2019-03-19 16:23:29 +0000";
layers = (
{
layerId = "18FF748A-4ED4-42AC-B8D8-EAC2010FE1E3";
paths = (
{
closed = 1;
nodes = (
"100 0 LINE",
"100 300 LINE",
"300 300 LINE",
"300 500 LINE",
"200 500 LINE",
"200 200 LINE",
"0 200 LINE",
"0 0 LINE"
);
}
);
width = 400;
}
);
unicode = 002F;
},
{
glyphname = underscore;
lastChange = "2019-02-28 15:48:52 +0000";
layers = (
{
layerId = "18FF748A-4ED4-42AC-B8D8-EAC2010FE1E3";
paths = (
{
closed = 1;
nodes = (
"0 0 LINE",
"300 0 LINE",
"300 100 LINE",
"0 100 LINE"
);
}
);
width = 400;
}
);
unicode = 005F;
},
{
glyphname = bracketleft;
lastChange = "2019-03-19 15:15:09 +0000";
layers = (
{
layerId = "18FF748A-4ED4-42AC-B8D8-EAC2010FE1E3";
paths = (
{
closed = 1;
nodes = (
"200 500 LINE",
"0 500 LINE",
"0 0 LINE",
"200 0 LINE",
"200 100 LINE",
"100 100 LINE",
"100 400 LINE",
"200 400 LINE"
);
}
);
width = 300;
}
);
unicode = 005B;
},
{
glyphname = parenleft;
lastChange = "2019-03-19 16:23:41 +0000";
layers = (
{
layerId = "18FF748A-4ED4-42AC-B8D8-EAC2010FE1E3";
paths = (
{
closed = 1;
nodes = (
"100 500 LINE",
"100 0 LINE",
"200 0 LINE",
"200 100 LINE",
"0 100 LINE",
"0 400 LINE",
"200 399 LINE",
"200 500 LINE"
);
}
);
width = 300;
}
);
unicode = 0028;
},
{
glyphname = emdash;
lastChange = "2019-02-28 15:49:06 +0000";
layers = (
{
layerId = "18FF748A-4ED4-42AC-B8D8-EAC2010FE1E3";
paths = (
{
closed = 1;
nodes = (
"0 200 LINE",
"400 200 LINE",
"400 300 LINE",
"0 300 LINE"
);
}
);
width = 500;
}
);
unicode = 2014;
},
{
glyphname = endash;
lastChange = "2019-02-28 15:49:09 +0000";
layers = (
{
layerId = "18FF748A-4ED4-42AC-B8D8-EAC2010FE1E3";
paths = (
{
closed = 1;
nodes = (
"0 200 LINE",
"300 200 LINE",
"300 300 LINE",
"0 300 LINE"
);
}
);
width = 400;
}
);
unicode = 2013;
},
{
glyphname = dollar;
lastChange = "2019-03-22 22:58:24 +0000";
layers = (
{
layerId = "18FF748A-4ED4-42AC-B8D8-EAC2010FE1E3";
paths = (
{
closed = 1;
nodes = (
"100 0 LINE",
"100 -100 LINE",
"200 -100 LINE",
"200 0 LINE",
"300 0 LINE",
"300 200 LINE",
"0 200 LINE",
"0 400 LINE",
"100 400 LINE",
"100 500 LINE",
"200 500 LINE",
"200 400 LINE",
"300 400 LINE",
"300 300 LINE",
"100 300 LINE",
"100 100 LINE",
"0 100 LINE",
"0 0 LINE"
);
}
);
width = 400;
}
);
unicode = 0024;
},
{
glyphname = plus;
lastChange = "2019-02-28 15:49:21 +0000";
layers = (
{
layerId = "18FF748A-4ED4-42AC-B8D8-EAC2010FE1E3";
paths = (
{
closed = 1;
nodes = (
"0 200 LINE",
"300 200 LINE",
"300 300 LINE",
"0 300 LINE"
);
},
{
closed = 1;
nodes = (
"100 100 LINE",
"200 100 LINE",
"200 400 LINE",
"100 400 LINE"
);
}
);
width = 400;
}
);
unicode = 002B;
},
{
glyphname = minus;
lastChange = "2019-02-28 15:49:24 +0000";
layers = (
{
layerId = "18FF748A-4ED4-42AC-B8D8-EAC2010FE1E3";
paths = (
{
closed = 1;
nodes = (
"0 200 LINE",
"200 200 LINE",
"200 300 LINE",
"0 300 LINE"
);
}
);
width = 300;
}
);
unicode = 2212;
},
{
glyphname = multiply;
lastChange = "2019-03-19 16:24:03 +0000";
layers = (
{
layerId = "18FF748A-4ED4-42AC-B8D8-EAC2010FE1E3";
paths = (
{
closed = 1;
nodes = (
"0 300 LINE",
"300 300 LINE",
"300 400 LINE",
"200 400 LINE",
"200 100 LINE",
"300 100 LINE",
"300 200 LINE",
"0 200 LINE",
"0 100 LINE",
"100 100 LINE",
"100 400 LINE",
"0 400 LINE"
);
}
);
width = 400;
}
);
unicode = 00D7;
},
{
glyphname = percent;
lastChange = "2019-03-19 16:24:23 +0000";
layers = (
{
components = (
{
name = slash;
}
);
layerId = "18FF748A-4ED4-42AC-B8D8-EAC2010FE1E3";
paths = (
{
closed = 1;
nodes = (
"0 400 LINE",
"100 400 LINE",
"100 500 LINE",
"0 500 LINE"
);
},
{
closed = 1;
nodes = (
"200 0 LINE",
"300 0 LINE",
"300 100 LINE",
"200 100 LINE"
);
}
);
width = 400;
}
);
unicode = 0025;
},
{
glyphname = percent.alt;
lastChange = "2019-03-19 15:13:25 +0000";
layers = (
{
layerId = "18FF748A-4ED4-42AC-B8D8-EAC2010FE1E3";
paths = (
{
closed = 1;
nodes = (
"0 300 LINE",
"200 300 LINE",
"200 500 LINE",
"0 500 LINE"
);
},
{
closed = 1;
nodes = (
"300 0 LINE",
"500 0 LINE",
"500 200 LINE",
"300 200 LINE"
);
},
{
closed = 1;
nodes = (
"100 200 LINE",
"300 200 LINE",
"300 400 LINE",
"500 400 LINE",
"500 500 LINE",
"400 500 LINE",
"400 300 LINE",
"200 300 LINE",
"200 100 LINE",
"0 100 LINE",
"0 0 LINE",
"100 0 LINE"
);
}
);
width = 600;
}
);
},
{
glyphname = bar;
lastChange = "2019-03-20 18:09:50 +0000";
layers = (
{
layerId = "18FF748A-4ED4-42AC-B8D8-EAC2010FE1E3";
paths = (
{
closed = 1;
nodes = (
"100 0 LINE",
"200 0 LINE",
"200 500 LINE",
"100 500 LINE"
);
}
